HIERARCHY
ROOT Hips
{
	OFFSET 0.000000 0.000000 0.000000
	CHANNELS 6 Xposition Yposition Zposition Xrotation Yrotation Zrotation
	JOINT LeftUpLeg_virtual
	{
		OFFSET 0.000000 0.000000 0.000000
		CHANNELS 3 Xrotation Yrotation Zrotation
		JOINT LeftUpLeg
		{
			OFFSET 10.205400 -3.823500 0.155100
			CHANNELS 3 Xrotation Yrotation Zrotation
			JOINT LeftLeg
			{
				OFFSET 0.708757 -12.982077 0.567790
				CHANNELS 3 Xrotation Yrotation Zrotation
				JOINT LeftFoot
				{
					OFFSET -0.708756 -10.717838 -2.184338
					CHANNELS 3 Xrotation Yrotation Zrotation
					JOINT LeftToeBase
					{
						OFFSET 0.108149 -7.191104 7.560241
						CHANNELS 3 Xrotation Yrotation Zrotation
						JOINT LeftToe_End
						{
							OFFSET 0.070230 0.081724 4.490308
							CHANNELS 3 Xrotation Yrotation Zrotation
							End Site
							{
								OFFSET 0 0 0
							}
						}
					}
				}
			}
		}
	}
	JOINT RightUpLeg_virtual
	{
		OFFSET 0.000000 0.000000 0.000000
		CHANNELS 3 Xrotation Yrotation Zrotation
		JOINT RightUpLeg
		{
			OFFSET -10.205400 -3.823500 0.005500
			CHANNELS 3 Xrotation Yrotation Zrotation
			JOINT RightLeg
			{
				OFFSET -0.708756 -12.982134 0.610632
				CHANNELS 3 Xrotation Yrotation Zrotation
				JOINT RightFoot
				{
					OFFSET 0.708754 -10.717769 -1.945823
					CHANNELS 3 Xrotation Yrotation Zrotation
					JOINT RightToeBase
					{
						OFFSET -0.108140 -7.191069 7.372968
						CHANNELS 3 Xrotation Yrotation Zrotation
						JOINT RightToe_End
						{
							OFFSET -0.070227 0.081735 4.479403
							CHANNELS 3 Xrotation Yrotation Zrotation
							End Site
							{
								OFFSET 0 0 0
							}
						}
					}
				}
			}
		}
	}
	JOINT Spine_virtual
	{
		OFFSET 0.000000 0.000000 0.000000
		CHANNELS 3 Xrotation Yrotation Zrotation
		JOINT Spine
		{
			OFFSET 0.000000 6.876099 0.125700
			CHANNELS 3 Xrotation Yrotation Zrotation
			JOINT Spine1
			{
				OFFSET 0.000000 5.730043 0.104720
				CHANNELS 3 Xrotation Yrotation Zrotation
				JOINT Spine1_split
				{
					OFFSET 0.000000 5.730043 0.104720
					CHANNELS 3 Xrotation Yrotation Zrotation
					JOINT Spine2
					{
						OFFSET 0.000000 5.730043 0.104720
						CHANNELS 3 Xrotation Yrotation Zrotation
						JOINT Neck_virtual
						{
							OFFSET 0.000000 0.000000 0.000000
							CHANNELS 3 Xrotation Yrotation Zrotation
							JOINT Neck
							{
								OFFSET 0.000000 10.314075 0.188496
								CHANNELS 3 Xrotation Yrotation Zrotation
								JOINT Head
								{
									OFFSET 0.000000 7.643700 -2.377400
									CHANNELS 3 Xrotation Yrotation Zrotation
									JOINT HeadTop_End
									{
										OFFSET 0.000000 43.788605 -13.619600
										CHANNELS 3 Xrotation Yrotation Zrotation
										End Site
										{
											OFFSET 0 0 0
										}
									}
								}
							}
						}
						JOINT LeftShoulder_virtual
						{
							OFFSET 0.000000 0.000000 0.000000
							CHANNELS 3 Xrotation Yrotation Zrotation
							JOINT LeftShoulder
							{
								OFFSET 2.196100 4.412489 0.087492
								CHANNELS 3 Xrotation Yrotation Zrotation
								JOINT LeftShoulder_split
								{
									OFFSET 2.196100 4.412489 0.087492
									CHANNELS 3 Xrotation Yrotation Zrotation
									JOINT LeftArm
									{
										OFFSET 8.771219 -2.981674 -0.026999
										CHANNELS 3 Xrotation Yrotation Zrotation
										JOINT LeftForeArm
										{
											OFFSET 8.512804 0.000000 -0.000000
											CHANNELS 3 Xrotation Yrotation Zrotation
											JOINT LeftHand
											{
												OFFSET 18.484802 0.000000 -0.000000
												CHANNELS 3 Xrotation Yrotation Zrotation
												End Site
												{
													OFFSET 0 0 0
												}
											}
										}
									}
								}
							}
						}
						JOINT RightShoulder_virtual
						{
							OFFSET 0.000000 0.000000 0.000000
							CHANNELS 3 Xrotation Yrotation Zrotation
							JOINT RightShoulder
							{
								OFFSET -2.196100 4.412496 0.070690
								CHANNELS 3 Xrotation Yrotation Zrotation
								JOINT RightShoulder_split
								{
									OFFSET -2.196100 4.412496 0.070690
									CHANNELS 3 Xrotation Yrotation Zrotation
									JOINT RightArm
									{
										OFFSET -8.771282 -2.981682 -0.094208
										CHANNELS 3 Xrotation Yrotation Zrotation
										JOINT RightForeArm
										{
											OFFSET -8.494598 0.000000 0.000000
											CHANNELS 3 Xrotation Yrotation Zrotation
											JOINT RightHand
											{
												OFFSET -18.483803 0.000000 0.000001
												CHANNELS 3 Xrotation Yrotation Zrotation
												End Site
												{
													OFFSET 0 0 0
												}
											}
										}
									}
								}
							}
						}
					}
				}
			}
		}
	}
}
MOTION
Frames: 7
Frame Time: 0.03333333
54.208752 9.239639 12.430415 0.000000 0.000000 0.000000 -138.356246 -71.554482 -133.842666 149.206671 44.023858 22.577744 51.786306 13.882955 -3.023794 -22.740370 -10.441909 -11.179474 -0.096137 -0.311558 0.792288 0.000000 0.000000 0.000000 -145.817982 -76.155312 -137.818683 113.532436 -19.274367 -87.017252 39.231411 -2.552728 3.711192 -12.459154 -4.938690 2.586181 5.190359 -1.867258 2.457764 0.000000 0.000000 0.000000 13.478334 -65.583886 8.358108 -154.688704 -22.132536 35.772043 27.738074 22.599108 -122.341092 0.535505 6.354586 -0.341350 0.000000 0.000000 0.000000 13.779911 72.820294 -118.608284 -137.223746 35.503716 -171.172559 -174.046156 5.916528 146.132813 0.000000 0.000000 0.000000 142.719562 -10.230985 -6.618957 97.532431 33.682545 -124.157922 -64.264936 -2.319230 5.356102 176.145634 15.441174 64.441161 104.983238 55.159129 -118.587493 0.000000 0.000000 0.000000 8.652181 16.999637 -115.526994 76.387278 25.166877 168.655225 102.570228 19.273930 -48.866394 -176.556142 -15.785436 157.883210 -85.749118 -62.439622 -62.933657 0.000000 0.000000 0.000000 
54.209347 9.239410 12.429537 0.000000 0.000000 0.000000 -138.347736 -71.556313 -133.834114 149.206821 44.026860 22.574434 51.787020 13.879860 -3.024336 -22.741441 -10.444648 -11.182850 -0.093610 -0.311344 0.792676 0.000000 0.000000 0.000000 -145.811739 -76.157716 -137.812904 113.532600 -19.274317 -87.018816 39.228327 -2.553589 3.711236 -12.457352 -4.939669 2.585470 5.189872 -1.867443 2.458395 0.000000 0.000000 0.000000 13.477163 -65.583258 8.356375 -154.688936 -22.131777 35.771258 27.738544 22.599996 -122.340818 0.535476 6.354353 -0.341374 0.000000 0.000000 0.000000 13.782410 72.819604 -118.610237 -137.223350 35.503641 -171.172969 -174.046020 5.916739 146.133154 0.000000 0.000000 0.000000 142.719535 -10.230345 -6.619089 97.530819 33.680957 -124.158468 -64.266432 -2.320097 5.356549 176.145292 15.440814 64.441250 104.984611 55.159788 -118.588886 0.000000 0.000000 0.000000 8.652487 17.000652 -115.526434 76.387313 25.166612 168.655320 102.569203 19.275067 -48.864311 -176.555322 -15.786223 157.884495 -85.749548 -62.439827 -62.934094 0.000000 0.000000 0.000000 
54.209568 9.239174 12.428853 0.000000 0.000000 0.000000 -138.340291 -71.557857 -133.826683 149.210018 44.031026 22.567333 51.790490 13.876334 -3.025263 -22.741012 -10.448864 -11.188196 -0.089985 -0.310818 0.792426 0.000000 0.000000 0.000000 -145.807859 -76.159574 -137.809612 113.533262 -19.275798 -87.019287 39.227897 -2.553667 3.712185 -12.455803 -4.940887 2.586158 5.189967 -1.867941 2.459226 0.000000 0.000000 0.000000 13.474655 -65.582937 8.353449 -154.688321 -22.130294 35.772798 27.738435 22.600597 -122.340463 0.535228 6.354103 -0.341269 0.000000 0.000000 0.000000 13.785483 72.817186 -118.611945 -137.222735 35.503456 -171.174035 -174.045446 5.917030 146.133250 0.000000 0.000000 0.000000 142.719876 -10.229464 -6.618511 97.528292 33.678276 -124.161692 -64.268043 -2.321177 5.356551 176.144636 15.440640 64.441810 104.986640 55.160457 -118.590116 0.000000 0.000000 0.000000 8.650954 17.000785 -115.526175 76.388207 25.166167 168.655402 102.568712 19.275443 -48.863337 -176.553136 -15.788185 157.885574 -85.749678 -62.439841 -62.934312 0.000000 0.000000 0.000000 
54.209259 9.239136 12.428352 0.000000 0.000000 0.000000 -138.336507 -71.558608 -133.823254 149.215741 44.035288 22.558006 51.794175 13.874049 -3.026175 -22.739115 -10.453326 -11.192439 -0.087859 -0.310108 0.791838 0.000000 0.000000 0.000000 -145.807286 -76.160345 -137.809667 113.534123 -19.278398 -87.018994 39.230277 -2.553111 3.713689 -12.454757 -4.942097 2.587906 5.190104 -1.868686 2.459946 0.000000 0.000000 0.000000 13.472506 -65.583135 8.350785 -154.686859 -22.128556 35.776329 27.737883 22.601057 -122.340012 0.535021 6.354061 -0.341081 0.000000 0.000000 0.000000 13.789085 72.813375 -118.613475 -137.221642 35.503187 -171.175824 -174.044572 5.917323 146.133209 0.000000 0.000000 0.000000 142.720423 -10.228289 -6.617455 97.525696 33.675428 -124.167047 -64.268754 -2.322803 5.356318 176.143953 15.440536 64.442951 104.988422 55.160755 -118.590635 0.000000 0.000000 0.000000 8.648115 16.999974 -115.526421 76.390010 25.165760 168.655402 102.568001 19.275139 -48.863112 -176.550254 -15.791052 157.886257 -85.749323 -62.439650 -62.934039 0.000000 0.000000 0.000000 
54.209110 9.239325 12.427399 0.000000 0.000000 0.000000 -138.336411 -71.559141 -133.823842 149.222694 44.039400 22.549064 51.796241 13.874076 -3.026764 -22.735726 -10.456183 -11.192503 -0.087077 -0.309387 0.790866 0.000000 0.000000 0.000000 -145.809021 -76.160079 -137.811948 113.535509 -19.281805 -87.018536 39.235130 -2.552532 3.715317 -12.454193 -4.943327 2.589910 5.189074 -1.869633 2.460163 0.000000 0.000000 0.000000 13.472646 -65.583647 8.350033 -154.684838 -22.127202 35.780916 27.737408 22.601287 -122.339480 0.534691 6.354375 -0.341017 0.000000 0.000000 0.000000 13.792190 72.809386 -118.614404 -137.220140 35.503054 -171.177859 -174.043547 5.917575 146.133099 0.000000 0.000000 0.000000 142.720914 -10.226788 -6.616317 97.524480 33.673536 -124.173194 -64.268740 -2.324760 5.355624 176.143612 15.440418 64.444515 104.989324 55.160492 -118.589965 0.000000 0.000000 0.000000 8.644871 16.998613 -115.526790 76.392538 25.165528 168.655334 102.567605 19.274925 -48.863617 -176.547235 -15.794252 157.886626 -85.748544 -62.439219 -62.933261 0.000000 0.000000 0.000000 
54.209419 9.239645 12.426219 0.000000 0.000000 0.000000 -138.338160 -71.560281 -133.826355 149.229470 44.044902 22.542749 51.794554 13.876899 -3.026730 -22.733301 -10.455785 -11.186641 -0.085710 -0.308764 0.789257 0.000000 0.000000 0.000000 -145.811452 -76.159314 -137.814639 113.537053 -19.284889 -87.018133 39.241097 -2.552332 3.716555 -12.454579 -4.944797 2.591614 5.186561 -1.870718 2.459717 0.000000 0.000000 0.000000 13.475366 -65.584317 8.351475 -154.682666 -22.126878 35.785222 27.737595 22.601229 -122.338838 0.534659 6.354940 -0.341190 0.000000 0.000000 0.000000 13.795170 72.806026 -118.615360 -137.217763 35.503057 -171.180223 -174.042605 5.917744 146.133209 0.000000 0.000000 0.000000 142.721297 -10.224921 -6.615438 97.525853 33.673604 -124.179205 -64.267859 -2.326489 5.354696 176.143994 15.440133 64.446113 104.989187 55.159583 -118.588340 0.000000 0.000000 0.000000 8.642331 16.997079 -115.527377 76.395550 25.165484 168.655211 102.567564 19.274708 -48.864410 -176.544694 -15.797227 157.886858 -85.747383 -62.438495 -62.931758 0.000000 0.000000 0.000000 
54.210342 9.240114 12.425166 0.000000 0.000000 0.000000 -138.337941 -71.562563 -133.826683 149.234743 44.052258 22.540186 51.788011 13.881567 -3.025946 -22.734022 -10.451767 -11.176701 -0.083324 -0.308223 0.787150 0.000000 0.000000 0.000000 -145.812982 -76.158481 -137.815896 113.538726 -19.286940 -87.017983 39.247131 -2.552932 3.717326 -12.455532 -4.946313 2.592372 5.183465 -1.871774 2.458706 0.000000 0.000000 0.000000 13.479005 -65.585300 8.354190 -154.680931 -22.127923 35.788193 27.738872 22.600930 -122.338319 0.534944 6.355841 -0.341719 0.000000 0.000000 0.000000 13.798158 72.804107 -118.616562 -137.215017 35.503265 -171.182572 -174.041853 5.917823 146.133578 0.000000 0.000000 0.000000 142.721365 -10.222849 -6.615269 97.530266 33.675937 -124.184013 -64.266582 -2.327419 5.353795 176.145347 15.439632 64.447315 104.987924 55.158221 -118.585881 0.000000 0.000000 0.000000 8.641613 16.995640 -115.527787 76.398514 25.165555 168.655184 102.567380 19.274642 -48.865304 -176.542959 -15.799414 157.887609 -85.745840 -62.437505 -62.929477 0.000000 0.000000 0.000000 
